<?xml version="1.0" encoding="utf-8"?>
<!-- Generator: Adobe Illustrator 26.4.1, SVG Export Plug-In . SVG Version: 6.00 Build 0)  -->
<svg version="1.1" id="Layer_1" xmlns="http://www.w3.org/2000/svg" xmlns:xlink="http://www.w3.org/1999/xlink" x="0px" y="0px"
	 viewBox="0 0 700 700" style="enable-background:new 0 0 700 700;" xml:space="preserve">
<style type="text/css">
	.st0{fill:#0072C7;}
</style>
<g>
	<path class="st0" d="M612.5,481.2h-8.8v-43.8c0-2.3-0.9-4.5-2.6-6.2s-3.9-2.6-6.2-2.6h-1c0.6-2.9,0.9-5.8,1-8.8
		c0-10.1-3.5-19.8-9.9-27.6c-6.4-7.8-15.2-13.2-25.1-15.2c1.3-11.3,6.5-21.8,14.5-29.8L562.1,335l0,0
		c-11.3,11.3-18.2,26.2-19.6,42.1c-9.8,1.9-18.6,7-25,14.6l-4.1-4.2c-1.6-1.7-3.9-2.6-6.2-2.6c-2.3,0-4.6,0.9-6.2,2.6l-40.8,41.2
		H455c-4.8,0-8.8,3.9-8.8,8.8v43.8h-17.5v-43.8c0-2.3-0.9-4.5-2.6-6.2s-3.9-2.6-6.2-2.6h-1c0.6-2.9,0.9-5.8,1-8.8
		c0-10.1-3.5-19.8-9.9-27.6c-6.4-7.8-15.2-13.2-25.1-15.2c1.3-11.3,6.5-21.8,14.5-29.8L387.1,335l0,0c-4.2,4.5-7.9,9.5-10.9,15v-35
		H490c2.3,0,4.6-0.9,6.2-2.5l49.9-50H560c2.3,0,4.5-0.9,6.2-2.6s2.6-3.9,2.6-6.2v-35c0-2.3-0.9-4.5-2.6-6.2s-3.9-2.6-6.2-2.6h-35
		v-43.8c0-2.3-0.9-4.5-2.6-6.2s-3.9-2.6-6.2-2.6h-1c0.6-2.9,0.9-5.8,1-8.8c0-10.1-3.5-19.8-9.9-27.6c-6.4-7.8-15.2-13.2-25.1-15.2
		c1.3-11.3,6.5-21.8,14.5-29.8l-12-12.4c-11.4,11.2-18.5,26.1-20,42.1c-9.8,1.9-18.6,7-25,14.6l-4.1-4.2c-1.6-1.7-3.9-2.6-6.2-2.6
		c-2.3,0-4.6,0.9-6.2,2.6l-40.8,41.2h-5.2c-4.8,0-8.8,3.9-8.8,8.8V210h-35v-43.8c0-2.3-0.9-4.5-2.6-6.2s-3.9-2.6-6.2-2.6h-1
		c0.6-2.9,0.9-5.8,1-8.8c0-10-3.4-19.7-9.7-27.5c-6.3-7.8-15.1-13.2-24.8-15.3c1.3-11.3,6.5-21.8,14.5-29.8l-12.4-12.4
		c-11.4,11.2-18.5,26.1-20,42.1c-9.8,1.9-18.6,7-25,14.6l-4.1-4.2c-1.6-1.7-3.9-2.6-6.2-2.6c-2.3,0-4.6,0.9-6.2,2.6l-40.8,41.2h-5.2
		c-4.8,0-8.8,3.9-8.8,8.8V210h-35c-4.8,0-8.8,3.9-8.8,8.8v35c0,2.3,0.9,4.5,2.6,6.2s3.9,2.6,6.2,2.6h13.9l49.9,50
		c1.6,1.6,3.9,2.6,6.2,2.5h113.8v75.2l-38.6,38.6H280c-4.8,0-8.8,3.9-8.8,8.8v43.8h-17.5v-43.8c0-2.3-0.9-4.5-2.6-6.2
		s-3.9-2.6-6.2-2.6h-1c0.6-2.9,0.9-5.8,1-8.8c0-10-3.4-19.7-9.7-27.5c-6.3-7.8-15.1-13.2-24.8-15.3c1.3-11.3,6.5-21.8,14.5-29.8
		L212.5,335l0,0c-11.4,11.2-18.5,26.1-20,42.1c-9.8,1.9-18.6,7-25,14.6l-4.1-4.2c-1.6-1.7-3.9-2.6-6.2-2.6c-2.3,0-4.6,0.9-6.2,2.6
		l-40.8,41.2H105c-4.8,0-8.8,3.9-8.8,8.8v43.8h-8.8c-4.8,0-8.8,3.9-8.8,8.8v35c0,2.3,0.9,4.5,2.6,6.2c1.6,1.6,3.9,2.6,6.2,2.6h13.1
		l49.9,66.5c1.7,2.2,4.2,3.5,7,3.5h385c2.8,0,5.3-1.3,7-3.5l49.9-66.5h13.1c2.3,0,4.5-0.9,6.2-2.6s2.6-3.9,2.6-6.2v-35
		c0-2.3-0.9-4.5-2.6-6.2S614.8,481.2,612.5,481.2L612.5,481.2z M551.2,393.8c7,0,13.6,2.8,18.6,7.7s7.7,11.6,7.7,18.6
		c-0.1,3-0.6,5.9-1.7,8.8h-38.5l2.6-2.5c1.7-1.6,2.6-3.9,2.6-6.2s-0.9-4.6-2.6-6.2l-9.6-9.5C535.3,397.7,543,393.8,551.2,393.8
		L551.2,393.8z M507.5,406.1l13.9,13.9l-8.8,8.8h-27.8L507.5,406.1z M463.8,446.2h122.5v35H463.8V446.2z M402.5,420
		c-0.1,3-0.6,5.9-1.7,8.8h-38.5l2.6-2.5c1.7-1.6,2.6-3.9,2.6-6.2s-0.9-4.6-2.6-6.2l-9.6-9.5c4.5-5.9,11.2-9.6,18.5-10.3
		c7.3-0.7,14.6,1.8,20.1,6.7C399.3,405.6,402.5,412.6,402.5,420L402.5,420z M472.5,122.5c7,0,13.6,2.8,18.6,7.7
		c4.9,4.9,7.7,11.6,7.7,18.6c-0.1,3-0.6,5.9-1.7,8.8h-38.5l2.6-2.5c1.7-1.6,2.6-3.9,2.6-6.2s-0.9-4.6-2.6-6.2l-9.6-9.5
		C456.5,126.4,464.3,122.5,472.5,122.5L472.5,122.5z M428.8,134.8l13.9,13.9l-8.8,8.8h-27.8L428.8,134.8z M385,175h122.5v35H385V175
		z M280,122.5c7,0,13.6,2.8,18.6,7.7c4.9,4.9,7.7,11.6,7.7,18.6c-0.1,3-0.6,5.9-1.7,8.8h-38.5l2.6-2.5c1.7-1.6,2.6-3.9,2.6-6.2
		s-0.9-4.6-2.6-6.2l-9.6-9.5C264,126.4,271.8,122.5,280,122.5L280,122.5z M236.2,134.8l13.9,13.9l-8.8,8.8h-27.8L236.2,134.8z
		 M192.5,175H315v35H192.5V175z M148.8,227.5h402.5V245H148.8V227.5z M178.6,262.5h342.8l-35,35H213.6L178.6,262.5z M358.7,315v64.9
		c-6.1,2.7-11.6,6.7-15.9,11.8l-1.6-1.6V315L358.7,315z M332.5,406.1l13.9,13.9l-8.8,8.8h-27.8L332.5,406.1z M288.7,446.2h122.5v35
		H288.7V446.2z M201.2,393.8c7,0,13.6,2.8,18.6,7.7s7.7,11.6,7.7,18.6c-0.1,3-0.6,5.9-1.7,8.8h-38.5l2.6-2.5
		c1.7-1.6,2.6-3.9,2.6-6.2s-0.9-4.6-2.6-6.2l-9.6-9.5C185.3,397.7,193,393.8,201.2,393.8L201.2,393.8z M157.5,406.1l13.9,13.9
		l-8.8,8.8h-27.8L157.5,406.1z M113.7,446.2h122.5v35H113.7V446.2z M538.1,586.2H161.9l-39.4-52.5h455L538.1,586.2z M603.8,516.2
		H96.3v-17.5h507.5V516.2z"/>
	<g>
		<defs>
			<path id="SVGID_1_" d="M203.8,1443.8"/>
		</defs>
		<use xlink:href="#SVGID_1_"  style="overflow:visible;fill:#0072C7;"/>
		<clipPath id="SVGID_00000117673760056497530270000016031729205419862424_">
			<use xlink:href="#SVGID_1_"  style="overflow:visible;"/>
		</clipPath>
	</g>
	<g>
		<defs>
			<path id="SVGID_00000108276318642658436750000000177671739084327095_" d="M1086.6,743.8"/>
		</defs>
		<use xlink:href="#SVGID_00000108276318642658436750000000177671739084327095_"  style="overflow:visible;fill:#0072C7;"/>
		<clipPath id="SVGID_00000165913085983049950230000008362543447901861820_">
			<use xlink:href="#SVGID_00000108276318642658436750000000177671739084327095_"  style="overflow:visible;"/>
		</clipPath>
	</g>
	<g>
		<defs>
			<path id="SVGID_00000052824596172641618490000006384794856857527442_" d="M1107.5,743.8"/>
		</defs>
		<use xlink:href="#SVGID_00000052824596172641618490000006384794856857527442_"  style="overflow:visible;fill:#0072C7;"/>
		<clipPath id="SVGID_00000019675441074640759000000018381317746952512186_">
			<use xlink:href="#SVGID_00000052824596172641618490000006384794856857527442_"  style="overflow:visible;"/>
		</clipPath>
	</g>
	<g>
		<defs>
			<path id="SVGID_00000076581238652158551690000010191471652421553082_" d="M1137,743.8"/>
		</defs>
		<use xlink:href="#SVGID_00000076581238652158551690000010191471652421553082_"  style="overflow:visible;fill:#0072C7;"/>
		<clipPath id="SVGID_00000047745003536962847750000012986817343817051784_">
			<use xlink:href="#SVGID_00000076581238652158551690000010191471652421553082_"  style="overflow:visible;"/>
		</clipPath>
	</g>
	<g>
		<defs>
			<path id="SVGID_00000040552243918189575560000002557076141575028615_" d="M1158.6,743.8"/>
		</defs>
		<use xlink:href="#SVGID_00000040552243918189575560000002557076141575028615_"  style="overflow:visible;fill:#0072C7;"/>
		<clipPath id="SVGID_00000145025753108786768050000017847844452101511309_">
			<use xlink:href="#SVGID_00000040552243918189575560000002557076141575028615_"  style="overflow:visible;"/>
		</clipPath>
	</g>
	<g>
		<defs>
			<path id="SVGID_00000124880803058218825710000005162400891547535293_" d="M1312.7,743.8"/>
		</defs>
		<use xlink:href="#SVGID_00000124880803058218825710000005162400891547535293_"  style="overflow:visible;fill:#0072C7;"/>
		<clipPath id="SVGID_00000140727084505493288970000013827566821120184723_">
			<use xlink:href="#SVGID_00000124880803058218825710000005162400891547535293_"  style="overflow:visible;"/>
		</clipPath>
	</g>
	<g>
		<defs>
			<path id="SVGID_00000060008338872107862670000017263133324471832736_" d="M1334.3,743.8"/>
		</defs>
		<use xlink:href="#SVGID_00000060008338872107862670000017263133324471832736_"  style="overflow:visible;fill:#0072C7;"/>
		<clipPath id="SVGID_00000059300177504029435610000011665112650314943131_">
			<use xlink:href="#SVGID_00000060008338872107862670000017263133324471832736_"  style="overflow:visible;"/>
		</clipPath>
	</g>
	<g>
		<defs>
			<path id="SVGID_00000159462244974697151010000002442146467955172262_" d="M1363.8,743.8"/>
		</defs>
		<use xlink:href="#SVGID_00000159462244974697151010000002442146467955172262_"  style="overflow:visible;fill:#0072C7;"/>
		<clipPath id="SVGID_00000163775104596519499820000015210492914980725661_">
			<use xlink:href="#SVGID_00000159462244974697151010000002442146467955172262_"  style="overflow:visible;"/>
		</clipPath>
	</g>
</g>
</svg>
