<?xml version="1.0" encoding="utf-8"?>
<!-- Generator: Adobe Illustrator 26.4.1, SVG Export Plug-In . SVG Version: 6.00 Build 0)  -->
<svg version="1.1" id="Layer_1" xmlns="http://www.w3.org/2000/svg" xmlns:xlink="http://www.w3.org/1999/xlink" x="0px" y="0px"
	 viewBox="0 0 700 700" style="enable-background:new 0 0 700 700;" xml:space="preserve">
<style type="text/css">
	.st0{fill:#0072C7;}
</style>
<g>
	<path class="st0" d="M312.7,126.1c-5,0-9.5-2.8-11.8-7.3l-17.4-35.3c-3.4-6.2-0.6-14,6.2-17.4s14-0.6,17.4,6.2l17.4,35.3
		c3.4,6.7,0.6,14-6.2,17.4C316.1,125.6,314.4,126.1,312.7,126.1L312.7,126.1z"/>
	<path class="st0" d="M441.5,118.3c-1.1,0-2.8,0-4.5-0.6c-6.7-2.2-10.6-9.5-7.8-16.8l12.9-37c2.2-6.7,9.5-10.6,16.8-7.8
		c6.7,2.2,10.6,9.5,7.8,16.8l-12.9,37C452.1,114.4,447.1,118.3,441.5,118.3L441.5,118.3z"/>
	<path class="st0" d="M538.9,203.4c-5,0-9.5-2.8-11.8-7.3c-3.4-6.7-0.6-14,6.2-17.4l35.3-17.4c6.7-3.4,14-0.6,17.4,6.2
		c3.4,6.7,0.6,14-6.2,17.4l-35.3,17.4C542.9,203.4,541.2,203.4,538.9,203.4L538.9,203.4z"/>
	<path class="st0" d="M584.3,341.7c-1.1,0-2.8,0-4.5-0.6l-37-12.9c-6.7-2.2-10.6-9.5-7.8-16.8c2.2-6.7,9.5-10.6,16.8-7.8l37,12.9
		c6.7,2.2,10.6,9.5,7.8,16.8C594.9,338.4,589.9,341.7,584.3,341.7L584.3,341.7z"/>
	<path class="st0" d="M565.8,411.2c-6.7-2.8-14,0.6-16.8,7.3c-2.8,6.7,0.6,14,7.3,16.8c8.4,3.4,12.9,6.2,15.1,8.4
		c-10.1,4.5-36.4,10.6-78.4,13.4l76.2-66.6c5.6-4.5,6.2-12.9,1.1-18.5c-4.5-5.6-12.9-6.2-18.5-1.1l-99.7,87.9h-8.4
		c-71.1,0-114.8-9-128.2-15.1c10.6-9.5,56.6-24.1,128.2-24.1c12.9,0,25.8,0.6,38.1,1.7h1.1c6.7,0,12.3-5,12.9-11.8
		c0.6-7.3-5-13.4-11.8-14c-12.9-1.1-26.3-1.7-40.3-1.7c-22.4,0-51.5,1.7-78.4,6.2v-32.5c7.3,1.1,14,2.2,21.3,2.2
		c64.4,0,117-52.6,117-117c0-64.4-52.1-117.6-116.5-117.6c-41.4,0-80.1,22.4-101.4,58.2c-1.1,1.7-1.1,3.4-1.7,4.5H93.7h-1.1h-1.1
		c-7.3,0-12.9,5.6-12.9,12.9v338.8c0,7.3,5.6,12.9,12.9,12.9h227.9c21.3,31.9,51.5,52.1,84.6,52.1h78.4
		c65,0.6,117.6-75.6,117.6-168.5C600,431.3,588.8,420.1,565.8,411.2L565.8,411.2z M387.2,161.4c50.4,0,90.7,40.9,90.7,90.7
		c0,49.8-40.3,91.3-90.7,91.3c-6.7,0-13.4-0.6-20.2-2.2h-1.1V211.2c0-7.3-5.6-12.9-12.9-12.9h-38.6
		C331.2,175.4,358.1,161.4,387.2,161.4L387.2,161.4z M105.5,224.1h234.6v56l-234.6,57.7L105.5,224.1z M105.5,536.6V400l234.6-57.7
		v63.3c-29.7,7.8-52.1,20.7-52.1,40.3c0,33.6,6.7,65,18.5,91.3l-201,0L105.5,536.6z M482.9,588.7h-78.4
		c-44.8,0-82.3-51.5-89.6-118.7c21.8,7.8,60.5,14.6,128.8,14.6h12.3h0.6h1.1c59.9-0.6,94.6-6.7,114.8-14.6
		C565.3,537.7,527.7,588.7,482.9,588.7L482.9,588.7z"/>
	<path class="st0" d="M600,602.1c0,7.1-5.8,12.9-12.9,12.9s-12.9-5.8-12.9-12.9c0-7.1,5.8-12.9,12.9-12.9S600,595,600,602.1"/>
	<path class="st0" d="M274.6,602.1c0,7.1-5.8,12.9-12.9,12.9c-7.1,0-12.9-5.8-12.9-12.9c0-7.1,5.8-12.9,12.9-12.9
		C268.9,589.2,274.6,595,274.6,602.1"/>
	<path class="st0" d="M313.8,588.7c0-7.3-5.6-12.9-12.9-12.9c-7.3,0-12.9,5.6-12.9,12.9c0,7.3,5.6,12.9,12.9,12.9
		c0,7.3,5.6,12.9,12.9,12.9c7.3,0,12.9-5.6,12.9-12.9C326.7,594.8,320.5,588.7,313.8,588.7z"/>
	<g>
		<defs>
			<path id="SVGID_1_" d="M864.8,699"/>
		</defs>
		<use xlink:href="#SVGID_1_"  style="overflow:visible;fill:#0072C7;"/>
		<clipPath id="SVGID_00000079473973843833415060000001130883449985219748_">
			<use xlink:href="#SVGID_1_"  style="overflow:visible;"/>
		</clipPath>
	</g>
	<g>
		<defs>
			<path id="SVGID_00000026164757824209441770000003612205188563753352_" d="M981.8,699"/>
		</defs>
		<use xlink:href="#SVGID_00000026164757824209441770000003612205188563753352_"  style="overflow:visible;fill:#0072C7;"/>
		<clipPath id="SVGID_00000071551437252108316110000018313015236296672136_">
			<use xlink:href="#SVGID_00000026164757824209441770000003612205188563753352_"  style="overflow:visible;"/>
		</clipPath>
	</g>
	<g>
		<defs>
			<path id="SVGID_00000048498199499315501310000013084014939241411508_" d="M995.2,699"/>
		</defs>
		<use xlink:href="#SVGID_00000048498199499315501310000013084014939241411508_"  style="overflow:visible;fill:#0072C7;"/>
		<clipPath id="SVGID_00000165934516260758684180000013147701510795836340_">
			<use xlink:href="#SVGID_00000048498199499315501310000013084014939241411508_"  style="overflow:visible;"/>
		</clipPath>
	</g>
	<g>
		<defs>
			<path id="SVGID_00000001635198850483246070000001421464002344915849_" d="M1076.6,699"/>
		</defs>
		<use xlink:href="#SVGID_00000001635198850483246070000001421464002344915849_"  style="overflow:visible;fill:#0072C7;"/>
		<clipPath id="SVGID_00000036221303248055315140000014522496178831669404_">
			<use xlink:href="#SVGID_00000001635198850483246070000001421464002344915849_"  style="overflow:visible;"/>
		</clipPath>
	</g>
	<g>
		<defs>
			<path id="SVGID_00000097476953614481410230000008617402226095037367_" d="M1095.6,699"/>
		</defs>
		<use xlink:href="#SVGID_00000097476953614481410230000008617402226095037367_"  style="overflow:visible;fill:#0072C7;"/>
		<clipPath id="SVGID_00000178166686936162569190000003809344585521779345_">
			<use xlink:href="#SVGID_00000097476953614481410230000008617402226095037367_"  style="overflow:visible;"/>
		</clipPath>
	</g>
	<g>
		<defs>
			<path id="SVGID_00000019643214468695688460000010460215700028407479_" d="M791.4,727"/>
		</defs>
		<use xlink:href="#SVGID_00000019643214468695688460000010460215700028407479_"  style="overflow:visible;fill:#0072C7;"/>
		<clipPath id="SVGID_00000054945775559513353720000002317397460828328381_">
			<use xlink:href="#SVGID_00000019643214468695688460000010460215700028407479_"  style="overflow:visible;"/>
		</clipPath>
	</g>
	<g>
		<defs>
			<path id="SVGID_00000124122636929596874080000000490284010834225818_" d="M863.3,727"/>
		</defs>
		<use xlink:href="#SVGID_00000124122636929596874080000000490284010834225818_"  style="overflow:visible;fill:#0072C7;"/>
		<clipPath id="SVGID_00000018927987231391631480000015932315773621219715_">
			<use xlink:href="#SVGID_00000124122636929596874080000000490284010834225818_"  style="overflow:visible;"/>
		</clipPath>
	</g>
	<g>
		<defs>
			<path id="SVGID_00000041265118395299332130000002376331015975332772_" d="M896.6,727"/>
		</defs>
		<use xlink:href="#SVGID_00000041265118395299332130000002376331015975332772_"  style="overflow:visible;fill:#0072C7;"/>
		<clipPath id="SVGID_00000072240668666805443750000017026206499415214214_">
			<use xlink:href="#SVGID_00000041265118395299332130000002376331015975332772_"  style="overflow:visible;"/>
		</clipPath>
	</g>
	<g>
		<defs>
			<path id="SVGID_00000072265373052771327160000010734648710364912272_" d="M948.8,727"/>
		</defs>
		<use xlink:href="#SVGID_00000072265373052771327160000010734648710364912272_"  style="overflow:visible;fill:#0072C7;"/>
		<clipPath id="SVGID_00000010281430145195772730000008631669197528667270_">
			<use xlink:href="#SVGID_00000072265373052771327160000010734648710364912272_"  style="overflow:visible;"/>
		</clipPath>
	</g>
	<g>
		<defs>
			<path id="SVGID_00000099659781885409709310000010898252898331526306_" d="M988,727"/>
		</defs>
		<use xlink:href="#SVGID_00000099659781885409709310000010898252898331526306_"  style="overflow:visible;fill:#0072C7;"/>
		<clipPath id="SVGID_00000008860807288554607480000003670368513804792706_">
			<use xlink:href="#SVGID_00000099659781885409709310000010898252898331526306_"  style="overflow:visible;"/>
		</clipPath>
	</g>
	<g>
		<defs>
			<path id="SVGID_00000066509056282382714100000004783878431144504750_" d="M1038.2,727"/>
		</defs>
		<use xlink:href="#SVGID_00000066509056282382714100000004783878431144504750_"  style="overflow:visible;fill:#0072C7;"/>
		<clipPath id="SVGID_00000154394277054081709920000005693668705520972727_">
			<use xlink:href="#SVGID_00000066509056282382714100000004783878431144504750_"  style="overflow:visible;"/>
		</clipPath>
	</g>
	<g>
		<defs>
			<path id="SVGID_00000127727607522766672370000003884703061538861483_" d="M1052,727"/>
		</defs>
		<use xlink:href="#SVGID_00000127727607522766672370000003884703061538861483_"  style="overflow:visible;fill:#0072C7;"/>
		<clipPath id="SVGID_00000177478228983599697500000006299741140046604688_">
			<use xlink:href="#SVGID_00000127727607522766672370000003884703061538861483_"  style="overflow:visible;"/>
		</clipPath>
	</g>
	<g>
		<defs>
			<path id="SVGID_00000077324490180990692970000006623777325360997547_" d="M1080.8,727"/>
		</defs>
		<use xlink:href="#SVGID_00000077324490180990692970000006623777325360997547_"  style="overflow:visible;fill:#0072C7;"/>
		<clipPath id="SVGID_00000011016464820450187010000016161650477293302186_">
			<use xlink:href="#SVGID_00000077324490180990692970000006623777325360997547_"  style="overflow:visible;"/>
		</clipPath>
	</g>
	<g>
		<defs>
			<path id="SVGID_00000170257916372654764150000001131276517132715673_" d="M1116.4,727"/>
		</defs>
		<use xlink:href="#SVGID_00000170257916372654764150000001131276517132715673_"  style="overflow:visible;fill:#0072C7;"/>
		<clipPath id="SVGID_00000006697696947396067850000010642492854011054243_">
			<use xlink:href="#SVGID_00000170257916372654764150000001131276517132715673_"  style="overflow:visible;"/>
		</clipPath>
	</g>
</g>
</svg>
