<?xml version="1.0" encoding="utf-8"?>
<!-- Generator: Adobe Illustrator 26.4.1, SVG Export Plug-In . SVG Version: 6.00 Build 0)  -->
<svg version="1.1" id="Layer_1" xmlns="http://www.w3.org/2000/svg" xmlns:xlink="http://www.w3.org/1999/xlink" x="0px" y="0px"
	 viewBox="0 0 700 700" style="enable-background:new 0 0 700 700;" xml:space="preserve">
<style type="text/css">
	.st0{fill-rule:evenodd;clip-rule:evenodd;fill:#0072C7;}
	.st1{fill:#0072C7;}
</style>
<g>
	<path class="st0" d="M360.3,201.2c-81.4,0-147.5,66-147.5,147.5c0,81.4,66,147.5,147.5,147.5c81.4,0,147.5-66,147.5-147.5
		C507.8,267.2,441.7,201.2,360.3,201.2L360.3,201.2z M360.3,477.5c-71,0-128.8-57.8-128.8-128.8c0-71,57.8-128.8,128.8-128.8
		c71,0,128.8,57.8,128.8,128.8C489.1,419.7,431.3,477.5,360.3,477.5z"/>
	<path class="st0" d="M562.7,170.1c-1.3-2.6-3.7,0.5-4.5,1.1c-16.6,12.4-26.8,53.1-31.7,86.2c-5.5,36.4-6,77.3-6.8,109.1h21.5
		l4.7,154.9c0,3.8,3.1,6.9,6.9,6.9c3.8,0,6.9-3.1,6.9-6.9C559.6,521.4,569.1,173,562.7,170.1L562.7,170.1z"/>
	<path class="st1" d="M166.7,194.4c-22.3,0-40.5,30.5-40.5,68.1c0,28.6,10.5,53.1,25.4,63.1l6,197.4c0,4.4,3.6,8,8,8
		c4.4,0,8-3.6,8-8l8-197.3c14.9-10,25.5-34.5,25.5-63.2C207.2,224.9,189.1,194.4,166.7,194.4L166.7,194.4z M154,303.9
		c-34.5-40.1,0-91.5,0-91.5C133.5,266.5,154,303.9,154,303.9z"/>
	<path class="st0" d="M360.3,231.1c-64.8,0-117.6,52.8-117.6,117.6c0,64.8,52.8,117.6,117.6,117.6s117.6-52.8,117.6-117.6
		S425.1,231.1,360.3,231.1L360.3,231.1z M407.4,354.8c1.6,1.1,2,3.3,1.1,4.9l-8.8,15.3c-0.7,1.2-2,1.9-3.3,1.9
		c-0.6,0-1.3-0.2-1.9-0.5c-1.8-1.1-2.4-3.4-1.4-5.2l7.1-12.3l-21-15.3c-2,1.3-4,2.5-6.1,3.7l17.1,12.4c1.6,1.1,2,3.3,1.1,4.9
		l-8.8,15.3c-0.7,1.2-2,1.9-3.3,1.9c-0.6,0-1.3-0.2-1.9-0.5c-1.8-1.1-2.4-3.4-1.4-5.2l7.1-12.3L365.4,351c-2.4,1-4.9,1.9-7.6,2.7
		l14.4,10.4c1.6,1.1,2,3.3,1.1,4.9l-8.8,15.3c-0.7,1.2-2,1.9-3.3,1.9c-0.6,0-1.3-0.2-1.9-0.5c-1.8-1-2.4-3.4-1.4-5.2l7.1-12.3
		l-16.2-11.8c-1.1,0.4-2.1,0.8-3.2,1.4c-3.1,1.8-5.6,4.4-7.3,7.5c-5.4,6-11.9,13.5-12.9,22.7c-0.9,8.8,3.6,17.7,8.3,23.4
		c5,6.1,12.3,11.4,22.2,10.8c7.9-0.5,15.4-4.5,21.6-7.4c3.1-1.5,6.5-3.2,9.7-4.8c2.9-1.5,6.4-4.3,10.2-2.3c0.3,0.8,0.4,1.6,0.4,2.4
		c0.5,3.6,0.6,10.8-4.5,15.9c0,0,0,0,0,0c-0.6,1.9-1.8,3.5-3.3,4.8c-13.1,10.6-50.1,8-62.1-1.4c1.4-3.6,3.9-6,4.6-10.3
		c-2.5,2-6,7.4-10.2,7.4c-2.7,0-9.9-5.3-12-7.1c-3.7-3.2-5.7-7.3-7.7-10.2c6-2.9,12.4-5.4,15.7-11.1c-4,2.9-11.7,5.9-19.9,4.6
		c-4.4-7.8-7.6-16.7-7.7-28.8c7.1,2.8,16,5.6,25.6,3.4c-12.8-1-19.7-7.9-25.6-15.7c-0.4-9.7,2.2-18,5.4-24.8
		c3-6.4,6.8-13.5,14.5-15.4c6.9,15,12.5,31.3,32.2,33.6c-6.7-4.4-13.3-11.3-18.5-19.9c-3.3-5.4-9-15.5-6.6-21.9
		c2.2-5.6,10.9-8.5,17.4-10.2c17.6-4.8,36.5-6.5,56.1-8.7c-7.5-11.1-26-7.7-35.9-2.1c-2,1.1-3.5-2.2-1.5-3.3
		c10.4-5.9,27-8.3,36.8-0.3c-5.2-13.9-24.2-22.3-37.5-23.9c-3.2-0.4-2.1-5.3,1.1-4.9c17.9,2.1,40.5,14.5,42.6,33.9
		c3.3-0.5,6.8-1.2,9.8,0c0.3,2.5-3.2,3.6-4.8,5.1c5.6-0.4,14.5-1.9,17.4,2c-6.7,13.3-17.2,24.8-28.2,34.2c-1.7,1.4-3.4,2.8-5.2,4.1
		L407.4,354.8z"/>
	<path class="st0" d="M387.1,316.4c0,3.9-3.2,7.1-7.1,7.1c-3.9,0-7.1-3.2-7.1-7.1c0-3.9,3.2-7.1,7.1-7.1
		C383.9,309.4,387.1,312.5,387.1,316.4"/>
</g>
</svg>
