<?xml version="1.0" encoding="UTF-8" standalone="no"?>
<svg
   xmlns:dc="http://purl.org/dc/elements/1.1/"
   xmlns:cc="http://creativecommons.org/ns#"
   xmlns:rdf="http://www.w3.org/1999/02/22-rdf-syntax-ns#"
   xmlns:svg="http://www.w3.org/2000/svg"
   xmlns="http://www.w3.org/2000/svg"
   xmlns:sodipodi="http://sodipodi.sourceforge.net/DTD/sodipodi-0.dtd"
   xmlns:inkscape="http://www.inkscape.org/namespaces/inkscape"
   width="58"
   height="58"
   viewBox="0 0 58 58"
   version="1.1"
   id="svg849"
   sodipodi:docname="icon.svg"
   inkscape:version="0.92.5 (2060ec1f9f, 2020-04-08)">
  <metadata
     id="metadata855">
    <rdf:RDF>
      <cc:Work
         rdf:about="">
        <dc:format>image/svg+xml</dc:format>
        <dc:type
           rdf:resource="http://purl.org/dc/dcmitype/StillImage" />
        <dc:title>file-icon copy</dc:title>
      </cc:Work>
    </rdf:RDF>
  </metadata>
  <defs
     id="defs853" />
  <sodipodi:namedview
     pagecolor="#ffffff"
     bordercolor="#666666"
     borderopacity="1"
     objecttolerance="10"
     gridtolerance="10"
     guidetolerance="10"
     inkscape:pageopacity="0"
     inkscape:pageshadow="2"
     inkscape:window-width="1920"
     inkscape:window-height="1017"
     id="namedview851"
     showgrid="false"
     inkscape:zoom="5.7995256"
     inkscape:cx="56.793623"
     inkscape:cy="18.505787"
     inkscape:window-x="-8"
     inkscape:window-y="-8"
     inkscape:window-maximized="1"
     inkscape:current-layer="svg849" />
  <!-- Generator: Sketch 61 (89581) - https://sketch.com -->
  <title
     id="title836">file-icon copy</title>
  <desc
     id="desc838">Created with Sketch.</desc>
  <path
     style="fill:#ffffff;fill-opacity:1;stroke-width:1"
     d="M 44.667317,45.656092 C 50.196034,44.352863 54.899889,39.649002 56.203121,34.120286 58.172883,25.763947 53.079167,16.921491 45.257478,15.119171 44.447562,14.93254 36.381961,14.823586 23.047975,14.819159 0.55054786,14.812152 1.2883944,14.763918 1.5211225,16.212317 1.6667952,17.11889 10.23442,25.899739 11.567127,26.508334 c 1.053624,0.481153 2.210549,0.519904 15.69312,0.525697 8.751181,0.0035 14.846466,0.116813 15.284947,0.28352 1.9217,0.730641 2.460357,4.092568 0.905062,5.648788 l -0.756257,0.756708 -10.681236,0.142193 c -10.156592,0.135196 -10.701047,0.169299 -11.084557,0.69419 -0.221825,0.303608 -0.403318,0.742717 -0.403318,0.975818 0,0.585447 9.041984,9.678313 10.095261,10.152062 1.262789,0.567998 11.602617,0.545014 14.047168,-0.03118 z"
     id="path868"
     inkscape:connector-curvature="0"
     sodipodi:nodetypes="sscsssscscscscs" />
</svg>
